<svg width="592" height="609" viewBox="0 0 592 609" fill="none" xmlns="http://www.w3.org/2000/svg">
<rect width="592" height="609" fill="white"/>
<path d="M183 568L267.144 375.098C272.203 363.499 283.655 356 296.31 356C309.148 356 320.728 363.715 325.674 375.563L406 568H359.542L294.205 405.664L229.016 568H183Z" fill="black"/>
<path d="M32 417L224.902 332.856C236.501 327.797 244 316.345 244 303.69C244 290.852 236.285 279.272 224.437 274.326L32 194V240.458L194.336 305.795L32 370.984V417Z" fill="black"/>
<path d="M556 417L363.098 332.856C351.499 327.797 344 316.345 344 303.69C344 290.852 351.715 279.272 363.563 274.326L556 194V240.458L393.664 305.795L556 370.984V417Z" fill="black"/>
<path d="M314 504.5C314 514.165 306.165 522 296.5 522C286.835 522 279 514.165 279 504.5C279 494.835 286.835 487 296.5 487C306.165 487 314 494.835 314 504.5Z" fill="#FF6900"/>
<path d="M279 24H314V222.5C314 232.165 306.165 240 296.5 240C286.835 240 279 232.165 279 222.5V24Z" fill="#FF6900"/>
</svg>
