<svg width="592" height="609" viewBox="0 0 592 609" fill="none" xmlns="http://www.w3.org/2000/svg">
<rect width="592" height="609" fill="white"/>
<path d="M183 568L267.144 375.098C272.203 363.499 283.655 356 296.31 356C309.148 356 320.728 363.715 325.674 375.563L406 568H359.542L294.205 405.664L229.016 568H183Z" fill="black"/>
<path d="M32 417L224.902 332.856C236.501 327.797 244 316.345 244 303.69C244 290.852 236.285 279.272 224.437 274.326L32 194V240.458L194.336 305.795L32 370.984V417Z" fill="black"/>
<path d="M560 417L367.098 332.856C355.499 327.797 348 316.345 348 303.69C348 290.852 355.715 279.272 367.563 274.326L560 194V240.458L397.664 305.795L560 370.984V417Z" fill="black"/>
<path d="M309 508.5C309 515.404 303.404 521 296.5 521C289.596 521 284 515.404 284 508.5C284 501.596 289.596 496 296.5 496C303.404 496 309 501.596 309 508.5Z" fill="#FD7213"/>
<path d="M279 24H314V222.5C314 232.165 306.165 240 296.5 240C286.835 240 279 232.165 279 222.5V132V24Z" fill="#FF6900"/>
</svg>
